<svg width="32" height="13" viewBox="0 0 32 13" fill="none" xmlns="http://www.w3.org/2000/svg">
<path d="M31.2344 7.28909L28.9922 1.38284C28.8828 1.05472 28.6094 0.781279 28.2812 0.671904C27.9531 0.562529 27.625 0.507842 27.2969 0.671904L21.2812 2.96878C20.7891 3.13284 20.5156 3.7344 20.7344 4.22659C20.8984 4.71878 21.5 4.99222 21.9922 4.77347L25.7109 3.35159C23.6328 7.67191 19.2031 10.5157 14.1719 10.5157C8.64843 10.5157 3.78125 7.07034 2.08593 1.92972C1.86718 1.43753 1.32031 1.16409 0.828122 1.32815C0.335935 1.49222 0.0624976 2.03909 0.22656 2.53128C2.19531 8.43753 7.77343 12.4297 14.1172 12.4297C20.1328 12.4297 25.4922 8.87503 27.6797 3.46097L29.4297 8.00003C29.5937 8.38284 29.9219 8.60159 30.3047 8.60159C30.4141 8.60159 30.5234 8.60159 30.6328 8.54691C31.1797 8.32816 31.4531 7.78128 31.2344 7.28909Z" fill="white"/>
</svg>
