<svg width="39" height="47" viewBox="0 0 39 47" fill="none" xmlns="http://www.w3.org/2000/svg">
<path d="M19.5002 0.955078C9.29235 0.955078 0.920471 9.0332 0.920471 18.8738C0.920471 26.7316 12.1564 39.7301 17.0033 45.0176C17.6642 45.7519 18.5455 46.1191 19.5002 46.1191C20.4548 46.1191 21.3361 45.7519 21.997 45.0176C26.8439 39.8035 38.0798 26.7316 38.0798 18.8738C38.0798 8.95977 29.708 0.955078 19.5002 0.955078ZM20.0877 43.2551C19.7205 43.6223 19.2064 43.6223 18.9127 43.2551C15.3142 39.3629 3.49078 25.9973 3.49078 18.8738C3.49078 10.3551 10.6877 3.52539 19.5002 3.52539C28.3127 3.52539 35.5095 10.4285 35.5095 18.8738C35.5095 25.9973 23.6861 39.2895 20.0877 43.2551Z" fill="#3056D3"/>
</svg>
